<svg xmlns="http://www.w3.org/2000/svg" width="24.333" height="18.25" viewBox="0 0 24.333 18.25">
  <path id="Icon_awesome-plane-departure" data-name="Icon awesome-plane-departure" d="M23.724,18.066H.608A.608.608,0,0,0,0,18.674v1.217a.608.608,0,0,0,.608.608H23.724a.608.608,0,0,0,.608-.608V18.674A.608.608,0,0,0,23.724,18.066ZM3.062,14.008a1.254,1.254,0,0,0,.925.407l4.963-.007a2.5,2.5,0,0,0,1.127-.271L21.139,8.524a6.463,6.463,0,0,0,2.548-2.217c.7-1.083.772-1.866.5-2.42s-.941-.961-2.215-1.044a6.386,6.386,0,0,0-3.28.741l-3.745,1.9L6.629,2.365a.677.677,0,0,0-.684-.042l-2.5,1.269a.7.7,0,0,0-.2,1.085l5.939,3.73L5.264,10.4,2.513,9.011a.677.677,0,0,0-.611,0L.377,9.786a.7.7,0,0,0-.212,1.068Z" transform="translate(0 -2.249)" fill="#7d7d7d"/>
</svg>
