<svg xmlns="http://www.w3.org/2000/svg" width="18.938" height="16.24" viewBox="0 0 18.938 16.24">
  <g id="Icon_ionic-ios-cloudy-night" data-name="Icon ionic-ios-cloudy-night" transform="translate(-2.25 -4.497)">
    <path id="Path_17" data-name="Path 17" d="M12.644,18.73c-.021,0-.047,0-.068,0a2.867,2.867,0,0,0-.33.013,3.888,3.888,0,0,0-7.679.842,3.841,3.841,0,0,0,.021.385A2.631,2.631,0,0,0,4.8,25.208h7.844a3.239,3.239,0,0,0,0-6.478Z" transform="translate(0 -4.471)"/>
    <path id="Path_18" data-name="Path 18" d="M24.006,14.707c-.106,0-.211.008-.321.008a6.653,6.653,0,0,1-4.664-1.873,6.247,6.247,0,0,1-1.29-7.278l.495-.812a.171.171,0,0,0-.173-.254,7.5,7.5,0,0,0-.981.266,6.847,6.847,0,0,0-4.808,5.468c.059,0,.123,0,.182,0a4.918,4.918,0,0,1,4.533,3.028,4.18,4.18,0,0,1,2.651,1.26,4.253,4.253,0,0,1,1.226,2.99c0,.1,0,.195-.008.288A7.013,7.013,0,0,0,24.5,15.6c.2-.233.478-.541.647-.782a.17.17,0,0,0-.161-.266C24.7,14.6,24.314,14.69,24.006,14.707Z" transform="translate(-3.991)"/>
  </g>
</svg>
