<svg
  xmlns="http://www.w3.org/2000/svg"
  width="18.741"
  height="14.993"
  viewBox="0 0 18.741 14.993"
>
  <g
    id="Icon_ionic-ios-partly-sunny"
    data-name="Icon ionic-ios-partly-sunny"
    transform="translate(-1.125 -4.5)"
  >
    <g id="Group_1072" data-name="Group 1072" transform="translate(1.125 4.5)">
      <path
        id="Path_268"
        data-name="Path 268"
        d="M11.323,4.5h-.012a.618.618,0,0,0-.617.617V6.3a.618.618,0,0,0,.617.617h.012A.618.618,0,0,0,11.94,6.3V5.117A.618.618,0,0,0,11.323,4.5Z"
        transform="translate(-5.382 -4.5)"
      />
      <path
        id="Path_269"
        data-name="Path 269"
        d="M3.584,14.7v-.012a.618.618,0,0,0-.617-.617H1.742a.618.618,0,0,0-.617.617V14.7a.618.618,0,0,0,.617.617H2.964A.619.619,0,0,0,3.584,14.7Z"
        transform="translate(-1.125 -8.757)"
      />
      <path
        id="Path_270"
        data-name="Path 270"
        d="M4.826,8.991A.617.617,0,0,0,5.7,8.12l-.792-.8a.618.618,0,0,0-.437-.183h0a.619.619,0,0,0-.437,1.054Z"
        transform="translate(-2.339 -5.673)"
      />
      <path
        id="Path_271"
        data-name="Path 271"
        d="M17.576,7.25a.618.618,0,0,0-.437-.183h0a.618.618,0,0,0-.437.183l-.792.8a.62.62,0,0,0,0,.87l.012.012h0a.606.606,0,0,0,.422.168.618.618,0,0,0,.437-.183l.792-.8A.615.615,0,0,0,17.576,7.25Z"
        transform="translate(-7.622 -5.642)"
      />
      <path
        id="Path_272"
        data-name="Path 272"
        d="M5.4,19.216h0a.618.618,0,0,0-.437.183l-.792.8a.617.617,0,1,0,.874.87l.792-.8A.619.619,0,0,0,5.4,19.216Z"
        transform="translate(-2.402 -11.046)"
      />
    </g>
    <path
      id="Path_273"
      data-name="Path 273"
      d="M18.955,15.479h-.094a2.587,2.587,0,0,0-.351.016,4.385,4.385,0,0,0-5.9-3.135,4.317,4.317,0,0,0-.574.277,4.4,4.4,0,0,0-2.194,3.576c0,.082-.008.16-.008.242,0,.133.008.265.02.394,0,.016,0,.031,0,.043a2.991,2.991,0,0,0,.262,5.961h8.838a3.687,3.687,0,0,0,0-7.374Z"
      transform="translate(-2.712 -3.359)"
    />
    <path
      id="Path_274"
      data-name="Path 274"
      d="M8.751,15.4v-.012c-.012-.133-.02-.265-.02-.4,0-.082,0-.164.008-.246a4.474,4.474,0,0,1,2.233-3.634,4.194,4.194,0,0,1,.582-.281h0A2.86,2.86,0,1,0,8.751,15.4Z"
      transform="translate(-2.368 -2.33)"
    />
  </g>
</svg>
