<svg xmlns="http://www.w3.org/2000/svg" width="24.333" height="18.25" viewBox="0 0 24.333 18.25">
  <path id="Icon_awesome-plane-departure" data-name="Icon awesome-plane-departure" d="M.608,18.066H23.724a.608.608,0,0,1,.608.608v1.217a.608.608,0,0,1-.608.608H.608A.608.608,0,0,1,0,19.891V18.674A.608.608,0,0,1,.608,18.066ZM21.27,14.008a1.254,1.254,0,0,1-.925.407l-4.963-.007a2.5,2.5,0,0,1-1.127-.271L3.193,8.524A6.463,6.463,0,0,1,.645,6.307c-.7-1.083-.772-1.866-.5-2.42s.941-.961,2.215-1.044a6.386,6.386,0,0,1,3.28.741l3.745,1.9L17.7,2.365a.677.677,0,0,1,.684-.042l2.5,1.269a.7.7,0,0,1,.2,1.085l-5.939,3.73L19.068,10.4l2.751-1.387a.677.677,0,0,1,.611,0l1.526.774a.7.7,0,0,1,.212,1.068Z" transform="translate(0 -2.249)" fill="#2699fb"/>
</svg>
